<?xml version="1.0"?>
<svg xmlns="http://www.w3.org/2000/svg" height="512px" viewBox="0 0 456 456" width="512px" class=""><g><path d="m0 0h192v192h-192zm0 0" data-original="#000000" class="active-path" data-old_color="#D8D6D6" fill="#E1E0E0"/><path d="m256 0h192v192h-192zm0 0" data-original="#000000" class="active-path" data-old_color="#D8D6D6" fill="#E1E0E0"/><path d="m0 256h192v192h-192zm0 0" data-original="#000000" class="active-path" data-old_color="#D8D6D6" fill="#E1E0E0"/><path d="m448 336h-88v-80c0-4.417969-3.582031-8-8-8s-8 3.582031-8 8v80h-88c-4.417969 0-8 3.582031-8 8s3.582031 8 8 8h88v96c0 4.417969 3.582031 8 8 8s8-3.582031 8-8v-96h88c4.417969 0 8-3.582031 8-8s-3.582031-8-8-8zm0 0" data-original="#000000" class="active-path" data-old_color="#D8D6D6" fill="#E1E0E0"/></g> </svg>
