<?xml version="1.0" standalone="no"?>
<!DOCTYPE svg PUBLIC "-//W3C//DTD SVG 20010904//EN"
 "http://www.w3.org/TR/2001/REC-SVG-20010904/DTD/svg10.dtd">
<svg version="1.0" xmlns="http://www.w3.org/2000/svg"
 width="800.000000pt" height="600.000000pt" viewBox="0 0 800.000000 600.000000"
 preserveAspectRatio="xMidYMid meet">
<metadata>
Created by potrace 1.15, written by Peter Selinger 2001-2017
</metadata>
<g transform="translate(0.000000,600.000000) scale(0.100000,-0.100000)"
fill="#000000" stroke="none">
<path d="M4030 4410 c-19 -19 -20 -33 -20 -251 l0 -231 -109 -201 c-60 -111
-121 -225 -136 -254 l-27 -52 32 -60 c43 -80 126 -179 207 -246 69 -57 100
-66 127 -39 24 23 19 43 -16 73 -111 92 -208 231 -195 280 2 11 67 119 143
240 l138 221 53 0 c48 0 53 -2 53 -22 0 -32 28 -411 36 -475 l5 -53 45 0 c24
0 44 1 44 3 0 1 9 115 20 252 11 138 20 260 20 273 0 20 5 22 53 22 l52 0 143
-228 c78 -126 142 -235 142 -244 0 -8 -13 -41 -30 -74 -30 -60 -81 -119 -158
-185 -45 -39 -51 -58 -26 -83 26 -27 54 -18 126 40 108 87 228 248 228 306 0
12 -58 131 -130 264 l-130 242 0 231 c0 218 -1 232 -20 251 -19 19 -33 20
-335 20 -302 0 -316 -1 -335 -20z m560 -250 l0 -140 -225 0 -225 0 0 140 0
140 225 0 225 0 0 -140z"/>
<path d="M2233 3046 c-173 -56 -260 -231 -205 -413 41 -134 144 -212 291 -221
98 -6 173 15 226 62 l40 34 -49 51 -49 50 -29 -24 c-16 -14 -41 -28 -54 -31
-42 -11 -124 2 -152 23 -96 71 -96 245 -1 315 58 44 157 42 205 -3 l25 -23 51
51 c60 60 58 67 -26 111 -42 21 -68 26 -141 29 -57 2 -105 -2 -132 -11z"/>
<path d="M3515 3047 c-94 -31 -159 -88 -197 -172 -17 -39 -22 -69 -23 -136 0
-79 3 -92 35 -155 63 -123 170 -180 324 -172 137 7 237 72 289 187 31 68 31
207 -1 276 -29 63 -83 119 -147 153 -42 21 -66 26 -145 29 -60 2 -110 -2 -135
-10z m213 -149 c60 -36 94 -137 73 -215 -23 -84 -86 -133 -171 -133 -88 0
-150 50 -168 137 -30 140 62 253 193 236 22 -3 55 -14 73 -25z"/>
<path d="M4929 3047 c-89 -33 -133 -94 -133 -182 0 -92 46 -139 179 -185 83
-29 105 -45 105 -79 0 -74 -112 -90 -188 -26 l-29 24 -48 -49 c-47 -48 -48
-50 -31 -69 40 -44 105 -65 206 -66 110 0 159 19 207 81 23 31 28 49 31 109 4
69 3 73 -29 109 -36 41 -76 64 -159 91 -68 22 -90 40 -90 76 0 59 99 76 163
28 l29 -21 49 48 c26 26 46 51 43 56 -3 5 -29 20 -57 35 -63 32 -189 42 -248
20z"/>
<path d="M2652 2738 l3 -313 73 -3 72 -3 0 131 0 130 120 0 119 0 3 -127 3
-128 73 -3 72 -3 0 316 0 315 -75 0 -75 0 0 -120 0 -120 -120 0 -120 0 0 120
0 120 -75 0 -75 0 2 -312z"/>
<path d="M5332 2738 l3 -313 215 0 215 0 3 63 3 62 -146 0 -145 0 0 65 0 65
130 0 130 0 0 60 0 60 -130 0 -130 0 0 60 0 60 135 0 135 0 0 65 0 65 -210 0
-210 0 2 -312z"/>
</g>
</svg>
