<?xml version="1.0"?>
<svg xmlns="http://www.w3.org/2000/svg" viewBox="0 -16 512 512" width="512px" height="512px" class=""><g><path d="m406 450h-49.195312l-10-30h-181.609376l-10 30h-49.195312c-8.289062 0-15 6.710938-15 15s6.710938 15 15 15h300c8.289062 0 15-6.710938 15-15s-6.710938-15-15-15zm0 0" data-original="#000000" class="active-path" data-old_color="#E9E4E4" fill="#F3F0F0"/><path d="m406 90c-8.277344 0-15 6.722656-15 15s6.722656 15 15 15 15-6.722656 15-15-6.722656-15-15-15zm0 0" data-original="#000000" class="active-path" data-old_color="#E9E4E4" fill="#F3F0F0"/><path d="m466 0h-421c-24.8125 0-45 20.1875-45 45v255h91v-45c0-8.289062 6.710938-15 15-15h23.175781c1.550781-4.363281 3.324219-8.644531 5.332031-12.847656l-16.394531-16.40625c-5.859375-5.859375-5.859375-15.351563 0-21.210938l42.421875-42.421875c5.859375-5.859375 15.351563-5.859375 21.210938 0l16.40625 16.40625c4.203125-2.007812 8.480468-3.792969 12.847656-5.347656v-23.171875c0-8.289062 6.710938-15 15-15h60c8.289062 0 15 6.710938 15 15v23.175781c4.363281 1.550781 8.644531 3.339844 12.847656 5.34375l16.40625-16.40625c5.859375-5.855469 15.351563-5.855469 21.210938 0l42.421875 42.421875c5.859375 5.859375 5.859375 15.355469 0 21.210938l-16.394531 16.40625c2.007812 4.207031 3.78125 8.484375 5.332031 12.847656h23.175781c8.289062 0 15 6.710938 15 15v45h91v-255c0-24.8125-21.1875-45-46-45zm-60 150c-24.8125 0-45-20.1875-45-45s20.1875-45 45-45 45 20.1875 45 45-20.1875 45-45 45zm0 0" data-original="#000000" class="active-path" data-old_color="#E9E4E4" fill="#F3F0F0"/><path d="m211 285c0 5.183594 1.195312 10.183594 2.910156 15h84.179688c1.714844-4.816406 2.910156-9.816406 2.910156-15 0-24.8125-20.1875-45-45-45-24.816406 0-45 20.1875-45 45zm0 0" data-original="#000000" class="active-path" data-old_color="#E9E4E4" fill="#F3F0F0"/><path d="m154.777344 258.75c-1.710938 6.621094-7.6875 11.25-14.53125 11.25h-19.246094v30h61.972656c-1.007812-4.941406-1.972656-9.90625-1.972656-15 0-41.351562 33.648438-75 75-75s75 33.648438 75 75c0 5.09375-.964844 10.058594-1.972656 15h61.972656v-30h-19.246094c-6.84375 0-12.820312-4.628906-14.53125-11.25-2.390625-9.300781-6.125-18.296875-11.105468-26.734375-3.472657-5.886719-2.519532-13.386719 2.3125-18.222656l13.640624-13.652344-21.210937-21.210937-13.652344 13.652343c-4.835937 4.851563-12.351562 5.816407-18.238281 2.300781-8.421875-4.964843-17.402344-8.714843-26.71875-11.105468-6.621094-1.710938-11.25-7.6875-11.25-14.53125v-19.246094h-30v19.246094c0 6.84375-4.628906 12.820312-11.25 14.53125-9.316406 2.390625-18.296875 6.140625-26.71875 11.105468-5.859375 3.515626-13.390625 2.550782-18.238281-2.300781l-13.652344-13.652343-21.210937 21.210937 13.640624 13.652344c4.832032 4.835937 5.785157 12.335937 2.3125 18.222656-4.980468 8.4375-8.714843 17.433594-11.105468 26.734375zm0 0" data-original="#000000" class="active-path" data-old_color="#E9E4E4" fill="#F3F0F0"/><path d="m0 345c0 24.8125 20.1875 45 45 45h421c24.8125 0 46-20.1875 46-45v-15h-512zm0 0" data-original="#000000" class="active-path" data-old_color="#E9E4E4" fill="#F3F0F0"/></g> </svg>
