<?xml version="1.0" standalone="no"?>
<!DOCTYPE svg PUBLIC "-//W3C//DTD SVG 20010904//EN"
 "http://www.w3.org/TR/2001/REC-SVG-20010904/DTD/svg10.dtd">
<svg version="1.0" xmlns="http://www.w3.org/2000/svg"
 width="800.000000pt" height="600.000000pt" viewBox="0 0 800.000000 600.000000"
 preserveAspectRatio="xMidYMid meet">
<metadata>
Created by potrace 1.15, written by Peter Selinger 2001-2017
</metadata>
<g transform="translate(0.000000,600.000000) scale(0.100000,-0.100000)"
fill="#000000" stroke="none">
<path d="M4028 5328 c-9 -7 -18 -22 -20 -33 -3 -17 -11 -19 -71 -20 -63 0 -71
-2 -93 -28 -13 -15 -24 -35 -24 -43 0 -9 -11 -14 -33 -14 -43 0 -76 -34 -84
-86 -3 -21 -13 -48 -23 -59 -39 -45 -32 -88 23 -140 33 -32 114 -133 138 -173
19 -31 42 -36 79 -17 42 22 61 69 53 133 -5 44 -3 51 14 56 31 10 52 -3 72
-43 26 -51 32 -104 16 -135 -15 -28 -13 -31 31 -40 23 -5 37 -2 57 14 25 20
27 27 27 101 0 43 -4 79 -9 79 -5 0 -11 -12 -13 -27 -2 -17 -10 -29 -21 -31
-23 -5 -85 124 -68 141 6 6 11 28 11 48 0 21 13 66 30 101 42 88 42 158 1 199
-31 31 -67 37 -93 17z"/>
<path d="M4839 4970 c-1 -11 -2 -25 -3 -30 -1 -6 154 -101 344 -210 l345 -199
9 25 c6 18 4 30 -5 39 -15 13 -675 395 -684 395 -3 0 -6 -9 -6 -20z"/>
<path d="M2584 4733 c8 -213 13 -258 30 -272 7 -6 157 -35 332 -64 l319 -53 3
36 c4 58 11 77 38 109 25 30 25 30 18 166 -4 75 -11 138 -15 141 -12 7 -666
114 -700 114 l-31 0 6 -177z"/>
<path d="M3624 4702 c-71 -34 -208 -114 -221 -130 -20 -25 -15 -92 11 -147 24
-53 95 -125 122 -125 15 0 16 -15 10 -137 -11 -225 -26 -442 -36 -533 -6 -47
-10 -134 -10 -195 0 -60 0 -187 -1 -282 l0 -172 35 -6 c83 -16 87 -82 4 -77
-38 2 -44 0 -45 -18 -1 -14 8 -24 33 -35 39 -16 52 -39 34 -61 -9 -10 -22 -13
-42 -9 -25 6 -28 4 -28 -19 0 -17 8 -29 28 -38 50 -24 37 -85 -15 -71 -22 5
-23 3 -23 -68 0 -41 -9 -135 -20 -209 -11 -74 -24 -178 -30 -230 -14 -124 -14
-668 0 -685 7 -9 7 -26 1 -56 -16 -69 -14 -144 5 -160 22 -18 89 -15 116 5 13
9 53 37 90 62 37 24 72 53 78 64 15 28 12 96 -5 110 -14 12 -56 10 -101 -5
-21 -6 -21 -6 -7 67 55 291 152 726 208 938 27 102 46 138 39 74 -9 -86 -24
-531 -24 -714 0 -243 17 -589 29 -604 5 -6 3 -41 -4 -85 -22 -126 -5 -145 133
-142 234 4 304 25 310 94 4 48 -19 62 -136 81 -111 18 -124 25 -117 75 3 20
21 167 41 326 19 160 68 524 109 810 115 808 139 1063 115 1225 -4 30 -37 132
-72 225 l-65 170 58 6 c71 7 186 61 201 94 8 19 2 46 -37 151 -26 71 -56 140
-66 155 -20 28 -112 98 -193 146 -46 27 -53 28 -49 12 5 -17 -1 -19 -61 -19
-136 0 -301 84 -206 105 66 15 22 40 -86 50 -56 5 -77 2 -110 -13z m89 -408
l33 -16 -13 -135 c-7 -75 -14 -137 -16 -140 -3 -2 -17 2 -32 9 -27 12 -27 12
-20 92 3 45 8 93 11 109 4 19 1 29 -10 33 -21 8 -22 64 -1 64 8 0 29 -7 48
-16z m182 -84 l87 -40 -18 -28 c-85 -130 -128 -192 -136 -192 -8 0 -47 18 -56
26 -2 1 21 38 52 82 31 44 56 82 56 84 0 3 -18 13 -40 23 -35 16 -40 22 -40
52 0 18 2 33 4 33 2 0 43 -18 91 -40z"/>
<path d="M2626 4398 c-14 -22 -56 -122 -56 -135 0 -3 7 0 15 7 8 7 15 8 15 3
0 -5 16 -10 35 -11 20 -2 46 -7 59 -12 13 -5 27 -6 30 -3 3 4 6 2 6 -3 0 -5
12 -9 28 -10 15 0 45 -4 67 -8 22 -4 65 -9 95 -12 30 -3 60 -10 66 -15 6 -5
37 -10 68 -11 31 -1 56 -6 56 -10 0 -4 12 -8 28 -8 38 0 56 -14 48 -36 -5 -12
-4 -15 2 -9 12 12 82 169 82 182 0 6 -132 31 -292 57 -161 26 -303 50 -315 53
-15 3 -26 -2 -37 -19z"/>
<path d="M4711 3396 c-11 -13 -94 -403 -88 -419 1 -4 22 71 46 168 31 126 48
178 60 183 9 3 22 14 29 24 10 13 26 18 65 18 115 0 217 13 217 26 0 20 -312
20 -329 0z"/>
</g>
</svg>
